<?xml version="1.0" standalone="no"?>
<!DOCTYPE svg PUBLIC "-//W3C//DTD SVG 20010904//EN"
 "http://www.w3.org/TR/2001/REC-SVG-20010904/DTD/svg10.dtd">
<svg version="1.0" xmlns="http://www.w3.org/2000/svg"
 width="1024.000000pt" height="1024.000000pt" viewBox="0 0 1024.000000 1024.000000"
 preserveAspectRatio="xMidYMid meet">

<g transform="translate(0.000000,1024.000000) scale(0.100000,-0.100000)"
fill="#000000" stroke="none">
<path d="M1331 9927 c-6 -6 -11 -17 -11 -24 0 -21 -36 -33 -100 -33 -55 0 -65
-3 -92 -30 -23 -23 -39 -30 -68 -30 -32 0 -46 -7 -74 -35 -27 -27 -44 -35 -71
-35 -29 0 -39 -5 -53 -30 -9 -17 -24 -32 -32 -35 -23 -8 -86 -70 -106 -104
-10 -16 -28 -32 -41 -36 -12 -3 -30 -19 -38 -35 -9 -17 -22 -30 -30 -30 -8 0
-22 -11 -31 -25 -9 -14 -22 -25 -29 -25 -8 0 -24 -14 -36 -31 -30 -42 -84
-103 -113 -127 -10 -8 -16 -29 -16 -56 0 -40 -4 -46 -35 -65 -31 -18 -35 -25
-35 -63 0 -52 -7 -64 -43 -77 -27 -10 -28 -13 -22 -56 7 -41 5 -45 -18 -54
-14 -5 -28 -15 -33 -22 -4 -7 -7 -782 -7 -1723 0 -941 -3 -1722 -7 -1737 -4
-14 -5 -31 -1 -38 6 -8 597 -11 2332 -12 l2324 -1 3 2244 c1 1233 0 2253 -3
2266 -3 14 -13 22 -26 22 -11 0 -23 9 -28 23 l-8 22 -1721 2 c-1246 1 -1723
-2 -1731 -10z m1349 -1023 c93 -30 139 -65 192 -149 30 -47 32 -56 33 -142 0
-70 -4 -95 -15 -105 -12 -10 -57 -12 -200 -8 -102 3 -241 2 -310 -2 -153 -9
-160 -5 -160 84 0 57 21 146 41 178 5 8 17 27 26 41 31 48 156 111 238 119 66
7 88 5 155 -16z m1127 -513 c46 -11 56 -19 83 -60 28 -45 30 -53 30 -150 0
-56 -5 -111 -10 -122 -11 -19 -36 -19 -1338 -19 -1020 0 -1331 3 -1340 12 -17
17 -16 209 2 251 19 45 65 85 109 94 21 4 572 8 1225 7 910 -1 1199 -4 1239
-13z m163 -32 c0 -11 -4 -17 -10 -14 -5 3 -10 13 -10 21 0 8 5 14 10 14 6 0
10 -9 10 -21z m-80 -489 c5 -8 7 -24 3 -35 -16 -51 -22 -50 192 -55 136 -3
207 -9 223 -18 33 -19 52 -75 52 -156 0 -168 -15 -178 -270 -175 -99 2 -183
-1 -187 -5 -4 -4 -7 -185 -5 -401 3 -438 -2 -489 -58 -572 -17 -24 -30 -47
-30 -51 0 -10 -125 -126 -170 -157 -62 -43 -166 -76 -270 -87 -56 -6 -430 -8
-905 -5 l-811 4 -94 46 c-78 37 -108 59 -169 120 -40 41 -86 97 -102 123 -57
98 -58 113 -61 564 l-3 415 -196 3 -196 2 -29 31 c-27 29 -29 36 -32 128 -4
113 8 150 59 177 25 13 63 15 212 13 l182 -2 3 44 c2 24 8 49 14 56 9 11 266
13 1325 11 1155 -3 1315 -5 1323 -18z m-2660 -1530 c0 -5 -4 -10 -10 -10 -5 0
-10 5 -10 10 0 6 5 10 10 10 6 0 10 -4 10 -10z"/>
<path d="M5302 9905 l-32 -30 0 -2255 0 -2255 2327 0 2328 0 -1 1707 c-1 1573
-3 1709 -18 1733 -21 32 -29 32 -44 -2 -10 -25 -11 -22 -5 22 16 132 6 177
-45 196 -23 9 -24 13 -18 59 6 46 5 50 -16 56 -37 10 -118 109 -118 143 0 28
-14 50 -43 68 -7 5 -36 37 -66 73 -29 36 -58 67 -65 69 -6 2 -23 16 -38 30
-14 14 -31 31 -37 36 -7 6 -17 18 -24 28 -7 9 -30 20 -52 24 -30 4 -54 19 -97
59 -57 55 -92 74 -131 74 -13 0 -33 14 -49 34 -25 31 -32 34 -62 29 -30 -5
-39 0 -70 31 -36 35 -39 36 -112 36 -72 0 -75 1 -87 28 -6 15 -16 30 -22 35
-5 4 -766 6 -1690 5 l-1680 -3 -33 -30z m2493 -756 c97 -28 192 -68 224 -94
14 -12 44 -32 65 -45 56 -34 186 -184 186 -215 0 -7 9 -20 20 -30 10 -9 26
-36 33 -59 47 -136 49 -146 55 -335 4 -104 11 -193 15 -198 5 -4 95 -10 201
-13 l192 -5 77 -39 c60 -31 81 -47 96 -76 20 -39 46 -173 36 -189 -3 -6 -13
-172 -21 -368 -30 -701 -33 -759 -48 -848 -9 -49 -16 -121 -16 -160 0 -92 -30
-184 -80 -249 -53 -68 -62 -77 -107 -94 -76 -29 -230 -33 -1187 -30 -765 2
-970 6 -974 16 -2 6 -10 12 -17 12 -8 0 -28 12 -44 28 -48 44 -82 72 -90 72
-11 0 -73 89 -94 135 -15 32 -20 81 -28 245 -12 263 -24 421 -43 590 -9 85
-16 256 -18 462 l-3 326 30 44 c23 33 48 52 107 81 l78 38 172 7 c147 6 172 9
168 22 -7 23 0 250 10 311 9 64 75 256 94 278 7 9 25 36 39 61 36 63 151 180
219 223 57 36 110 60 203 92 108 38 327 40 450 4z m-1547 -1055 c-3 -19 -34
-41 -43 -32 -4 3 -2 16 5 27 13 25 43 28 38 5z m72 -1815 c0 -11 -4 -17 -10
-14 -5 3 -10 13 -10 21 0 8 5 14 10 14 6 0 10 -9 10 -21z m57 -55 c6 -16 -15
-37 -29 -28 -4 3 -8 14 -8 25 0 23 28 26 37 3z m2493 -29 c0 -8 -7 -15 -15
-15 -16 0 -20 12 -8 23 11 12 23 8 23 -8z m-2417 -25 c3 -12 0 -20 -8 -20 -16
0 -37 25 -28 33 13 13 31 7 36 -13z m2288 -92 c-8 -23 -17 -26 -73 -31 -136
-12 -1929 -18 -2007 -7 -75 11 -134 31 -146 50 -8 14 122 2 171 -16 34 -12
178 -14 955 -11 886 4 951 6 1069 35 19 5 36 8 38 7 1 -1 -2 -14 -7 -27z"/>
<path d="M7490 8858 c-14 -5 -38 -10 -53 -10 -17 1 -32 -7 -40 -19 -6 -10 -20
-19 -29 -19 -25 0 -23 -16 3 -23 17 -5 19 -9 9 -26 -13 -24 -38 -28 -46 -6 -4
8 -11 15 -16 15 -28 0 -158 -144 -158 -175 0 -8 -6 -26 -14 -38 -18 -28 -37
-192 -31 -276 2 -36 0 -70 -5 -76 -5 -6 -5 -17 0 -25 7 -11 86 -13 482 -11
260 1 475 4 477 6 2 3 0 21 -5 42 -5 21 -7 65 -4 98 12 145 -26 279 -103 366
-18 20 -37 45 -42 54 -6 10 -16 16 -23 14 -8 -3 -8 -11 3 -29 25 -45 28 -51
20 -58 -4 -4 -14 3 -22 16 -9 12 -21 22 -28 22 -7 0 -18 7 -25 15 -10 13 -10
19 4 33 21 24 20 32 -3 32 -10 0 -21 -7 -25 -15 -8 -23 -73 -20 -86 4 -7 13
-20 19 -42 19 -175 -2 -276 8 -259 25 6 6 67 9 151 9 108 -1 146 -5 163 -17
24 -17 67 -20 67 -5 0 14 -53 39 -117 56 -62 16 -167 17 -203 2z m-170 -136
c0 -15 -59 -91 -79 -101 -10 -6 -24 -24 -29 -41 -10 -28 -42 -43 -42 -20 0 6
4 10 9 10 10 0 27 26 55 87 22 44 86 93 86 65z m657 -116 c12 -24 19 -46 16
-49 -10 -10 -75 64 -69 79 10 26 31 14 53 -30z"/>
<path d="M246 4881 l-50 -6 -2 -1818 c-3 -1796 -2 -1819 17 -1835 11 -9 25
-17 32 -17 7 0 11 -12 9 -30 -4 -51 -3 -117 3 -136 3 -9 20 -22 36 -28 29 -10
30 -13 24 -51 -6 -37 -4 -43 29 -76 26 -26 36 -45 36 -68 0 -33 0 -33 178
-227 53 -59 101 -107 105 -108 4 -1 41 -30 82 -66 57 -49 82 -65 105 -65 16 0
38 -8 48 -18 32 -32 66 -52 89 -52 12 0 29 -8 38 -17 16 -16 140 -64 215 -84
19 -5 78 -17 130 -26 88 -16 223 -18 1785 -18 l1690 0 3 2355 c1 1295 0 2365
-3 2376 l-5 22 -2272 0 c-1250 -1 -2295 -3 -2322 -7z m2415 -700 c24 -16 197
-181 385 -367 304 -302 688 -678 980 -961 142 -137 166 -188 137 -292 -14 -48
-25 -69 -48 -85 -32 -23 -85 -45 -125 -53 -24 -4 -95 22 -132 49 -9 7 -20 10
-23 7 -3 -3 -6 -298 -8 -655 -2 -617 -3 -651 -21 -684 -36 -66 -61 -93 -106
-112 -44 -20 -67 -20 -1135 -19 -1236 2 -1123 -6 -1205 91 -44 54 -48 63 -54
130 -4 40 -6 333 -5 652 1 318 0 581 -4 584 -3 4 -21 -2 -39 -13 -67 -40 -137
-35 -216 15 -36 23 -72 103 -72 159 0 70 34 112 308 381 130 128 441 434 691
680 523 514 478 471 516 499 45 34 118 31 176 -6z m476 -367 c-9 -9 -28 6 -21
18 4 6 10 6 17 -1 6 -6 8 -13 4 -17z m58 -44 c3 -5 -1 -10 -9 -10 -9 0 -16 5
-16 10 0 6 4 10 9 10 6 0 13 -4 16 -10z m265 -265 c0 -8 -4 -15 -10 -15 -5 0
-10 7 -10 15 0 8 5 15 10 15 6 0 10 -7 10 -15z"/>
<path d="M2225 2268 c-3 -7 -4 -195 -3 -418 l3 -405 342 0 c220 0 344 4 345
10 2 6 1 192 -2 415 l-5 405 -338 3 c-265 2 -339 0 -342 -10z"/>
<path d="M5272 2513 l3 -2378 1580 -3 c1371 -2 1593 -1 1680 12 55 9 136 18
180 22 49 4 101 15 135 30 30 13 74 28 98 34 23 6 48 20 55 30 9 15 23 20 54
20 34 0 46 5 66 30 14 17 34 30 45 30 34 0 91 29 108 55 9 14 21 25 28 25 19
1 102 82 89 87 -22 8 -14 19 31 41 33 17 45 29 50 52 3 17 12 30 19 30 7 0 23
14 36 30 16 23 28 29 42 25 14 -5 22 0 30 19 7 14 20 28 29 31 9 3 23 17 31
32 8 15 27 39 42 53 20 17 30 38 34 68 4 31 14 49 35 67 23 19 29 32 27 58 -3
52 0 67 15 61 25 -10 50 46 51 116 0 55 3 68 23 85 20 17 24 34 31 110 4 50 7
855 6 1790 l-1 1700 -2229 3 -2228 2 -15 -21 c-15 -22 -15 -22 -31 -2 -12 15
-33 22 -84 27 l-67 7 2 -2378z m1993 1646 c91 -22 158 -44 185 -60 8 -5 26
-14 38 -19 44 -19 167 -102 205 -139 196 -186 281 -344 308 -571 12 -101 3
-285 -17 -357 -15 -55 -8 -94 20 -110 16 -9 830 -817 974 -967 45 -47 82 -90
82 -95 0 -5 7 -14 16 -22 43 -35 93 -181 99 -287 5 -103 -41 -244 -106 -322
-58 -70 -92 -96 -179 -141 -62 -32 -69 -34 -180 -34 -147 0 -197 17 -305 102
-44 35 -290 274 -547 531 -257 257 -487 486 -510 509 -24 24 -52 43 -64 43
-12 0 -50 -10 -85 -22 -57 -19 -86 -22 -254 -22 -161 -1 -195 2 -216 15 -14 9
-49 22 -79 28 -110 23 -321 166 -411 279 -94 119 -128 176 -175 299 -80 207
-65 531 27 576 27 13 34 12 63 -2 17 -9 54 -39 82 -66 239 -239 487 -475 499
-475 8 0 29 6 47 14 64 27 115 45 263 92 83 26 154 51 158 54 5 4 17 47 28 96
11 49 24 107 30 129 6 22 14 63 19 90 8 49 25 122 37 151 3 10 -87 106 -270
288 -151 151 -280 284 -287 295 -9 17 -7 26 7 45 64 86 304 122 498 75z m1015
-1425 c0 -14 -3 -14 -15 -4 -8 7 -15 14 -15 16 0 2 7 4 15 4 8 0 15 -7 15 -16z
m250 -254 c0 -5 -2 -10 -4 -10 -3 0 -8 5 -11 10 -3 6 -1 10 4 10 6 0 11 -4 11
-10z m-2370 -76 c0 -8 -5 -12 -10 -9 -6 4 -8 11 -5 16 9 14 15 11 15 -7z
m3667 -1226 c-3 -7 -5 -2 -5 12 0 14 2 19 5 13 2 -7 2 -19 0 -25z"/>
</g>
</svg>
