<?xml version="1.0" standalone="no"?>
<!DOCTYPE svg PUBLIC "-//W3C//DTD SVG 20010904//EN"
 "http://www.w3.org/TR/2001/REC-SVG-20010904/DTD/svg10.dtd">
<svg version="1.0" xmlns="http://www.w3.org/2000/svg"
 width="1024.000000pt" height="1024.000000pt" viewBox="0 0 1024.000000 1024.000000"
 preserveAspectRatio="xMidYMid meet">

<g transform="translate(0.000000,1024.000000) scale(0.100000,-0.100000)"
stroke="none">
<!-- Icon TS - màu xanh -->
<g fill="#435ebe">
<path d="M3548 7143 c290 -2 452 -7 452 -13 0 -9 -122 -16 -185 -12 -12 1 -24
-8 -31 -23 -10 -21 -9 -26 10 -40 11 -9 15 -13 9 -10 -21 10 -52 -13 -48 -35
2 -13 -2 -20 -11 -20 -8 0 -14 -4 -14 -9 0 -5 -3 -18 -6 -28 -6 -16 -5 -15 9
2 8 11 19 17 23 12 4 -4 2 -7 -4 -7 -7 0 -12 -9 -12 -20 0 -11 -7 -20 -15 -20
-15 0 -19 11 -16 39 2 11 0 11 -12 0 -11 -11 -11 -16 2 -31 8 -10 21 -18 28
-18 7 0 13 -4 13 -10 0 -5 -8 -6 -17 -3 -12 5 -15 2 -10 -10 4 -11 2 -14 -8
-11 -8 3 -11 13 -8 22 4 13 3 14 -5 4 -5 -8 -17 -12 -27 -10 -10 2 -19 -3 -21
-10 -1 -7 0 -8 2 -3 3 5 14 7 25 4 16 -5 17 -8 7 -21 -9 -11 -9 -13 -1 -9 6 4
15 2 19 -4 4 -8 3 -9 -4 -5 -7 4 -12 2 -12 -5 0 -8 -4 -8 -15 1 -8 7 -15 8
-15 2 0 -5 7 -15 15 -22 21 -17 19 -35 -2 -19 -17 13 -17 13 0 -13 16 -26 9
-46 -13 -33 -5 3 -10 2 -10 -3 0 -5 8 -12 18 -14 10 -3 19 -12 19 -21 0 -9 -6
-13 -15 -10 -11 5 -11 7 0 14 10 7 8 9 -7 10 -11 1 -27 0 -34 -1 -13 -1 -13 1
-2 14 17 20 5 21 -15 1 -13 -13 -12 -15 11 -21 33 -8 32 -22 -1 -18 -14 1 -23
0 -20 -3 3 -3 -4 -14 -16 -24 -11 -11 -16 -19 -10 -19 7 0 20 8 30 18 18 18
58 26 66 14 2 -4 -7 -8 -20 -8 -28 -2 -56 -22 -48 -35 3 -5 0 -9 -5 -9 -6 0
-11 -9 -11 -20 0 -12 -10 -24 -22 -30 -22 -8 -21 -9 5 -7 15 1 27 5 27 9 0 4
5 8 11 8 8 0 9 -4 0 -13 -6 -8 -8 -17 -5 -20 4 -3 -11 -3 -31 0 -26 4 -36 3
-32 -5 11 -16 -3 -42 -23 -42 -25 0 -36 20 -13 21 10 1 23 0 28 -1 6 -1 7 2 2
6 -12 12 -47 15 -48 4 -1 -6 -3 -14 -4 -20 -1 -5 -3 -15 -4 -21 0 -5 -5 -7
-11 -4 -5 3 -10 2 -10 -4 0 -5 6 -11 13 -14 9 -3 7 -9 -5 -24 -10 -11 -18 -27
-18 -36 0 -9 -6 -17 -14 -17 -21 0 -28 -17 -10 -24 8 -3 12 -2 9 4 -3 6 1 10
9 10 9 0 16 -5 16 -11 0 -8 5 -8 15 1 9 8 15 8 15 2 0 -6 12 -12 28 -14 l27
-3 0 -470 0 -470 -2 462 -3 463 -605 2 c-333 2 -605 0 -605 -4 0 -5 270 -8
600 -8 l600 0 0 -1326 0 -1326 53 47 c28 26 153 138 277 248 124 110 300 268
393 350 l167 150 0 631 c0 602 1 634 20 694 18 56 20 92 20 298 l0 234 764 0
764 0 328 343 c180 188 352 368 383 400 l55 57 -1824 -2 c-1004 -2 -1621 -4
-1372 -5z m532 -7 c0 -11 -19 -15 -25 -6 -3 5 1 10 9 10 9 0 16 -2 16 -4z
m-267 -51 c-10 -8 -20 -11 -23 -8 -3 3 1 8 8 10 6 3 10 9 7 14 -4 5 1 6 10 3
14 -6 14 -8 -2 -19z m-227 -547 c5 4 6 3 2 -2 -4 -5 -2 -16 5 -25 7 -9 2 -8
-15 4 -15 11 -28 24 -28 29 0 5 6 3 13 -3 8 -6 18 -7 23 -3z m-94 -92 c7 4 8
2 4 -4 -11 -18 -26 -14 -25 6 0 10 3 12 6 4 2 -6 10 -9 15 -6z m45 -1063 c-3
-10 -5 -2 -5 17 0 19 2 27 5 18 2 -10 2 -26 0 -35z m0 -85 c-2 -13 -4 -3 -4
22 0 25 2 35 4 23 2 -13 2 -33 0 -45z"/>
<path d="M3751 7098 c-1 -23 9 -48 21 -48 7 0 7 4 0 13 -5 6 -12 21 -15 32 -3
15 -5 16 -6 3z"/>
<path d="M2934 6988 l-19 -23 23 19 c21 18 27 26 19 26 -2 0 -12 -10 -23 -22z"/>
<path d="M2820 6873 l-65 -68 68 65 c37 35 67 66 67 67 0 8 -10 -2 -70 -64z"/>
<path d="M2729 6783 c-13 -16 -12 -17 4 -4 9 7 17 15 17 17 0 8 -8 3 -21 -13z"/>
<path d="M2689 6743 c-13 -16 -12 -17 4 -4 9 7 17 15 17 17 0 8 -8 3 -21 -13z"/>
<path d="M3547 6621 c-4 -17 -3 -21 5 -13 5 5 8 16 6 23 -3 8 -7 3 -11 -10z"/>
<path d="M2460 6503 l-95 -98 98 95 c90 88 102 100 94 100 -1 0 -45 -44 -97
-97z"/>
</g>
<!-- Phần chữ S lớn - màu đen -->
<g fill="#000000">
<path d="M4781 5993 l-161 -167 0 -606 0 -606 23 -44 c16 -33 34 -51 67 -67
l44 -23 959 0 c1052 0 999 3 1032 -60 18 -35 20 -156 3 -212 -15 -51 -91 -136
-143 -159 -38 -18 -97 -19 -1159 -19 l-1119 0 -151 -144 c-83 -80 -239 -230
-346 -335 l-195 -190 1645 2 1645 2 66 23 c139 47 285 169 343 288 60 122 59
114 63 575 5 542 1 566 -128 704 -67 71 -144 114 -237 134 -36 8 -317 11 -888
11 l-835 0 3 169 c3 154 5 172 24 198 11 15 32 34 45 40 18 10 225 13 904 13
l880 0 320 320 320 320 -1432 0 -1431 0 -161 -167z"/>
</g>
</g>
</svg>
