<?xml version="1.0" standalone="no"?>
<!DOCTYPE svg PUBLIC "-//W3C//DTD SVG 20010904//EN"
 "http://www.w3.org/TR/2001/REC-SVG-20010904/DTD/svg10.dtd">
<svg version="1.0" xmlns="http://www.w3.org/2000/svg"
 width="1024.000000pt" height="1024.000000pt" viewBox="0 0 1024.000000 1024.000000"
 preserveAspectRatio="xMidYMid meet">

<g transform="translate(0.000000,1024.000000) scale(0.100000,-0.100000)"
fill="#000000" stroke="none">
<path d="M3973 6773 c-3 -7 -18 -13 -33 -13 -16 0 -32 -4 -35 -10 -3 -5 -14
-10 -24 -10 -10 0 -24 -7 -31 -15 -7 -8 -19 -15 -27 -15 -19 0 -193 -173 -193
-192 0 -9 -7 -21 -15 -28 -8 -7 -15 -21 -15 -31 0 -11 -4 -19 -10 -19 -5 0
-10 -8 -10 -19 0 -10 -7 -24 -15 -31 -13 -11 -15 -97 -15 -661 l0 -649 870 0
870 0 0 839 c0 691 -2 841 -13 850 -21 17 -1298 21 -1304 4z m543 -388 c32
-21 56 -77 48 -110 -6 -25 -6 -25 -131 -25 l-126 0 6 45 c2 25 13 55 23 67 44
48 125 59 180 23z m408 -191 c10 -10 16 -33 16 -65 l0 -49 -500 0 c-469 0
-500 1 -501 18 -2 42 4 88 13 100 8 9 117 12 484 12 416 0 474 -2 488 -16z m6
-194 c0 -18 7 -20 74 -20 92 0 111 -14 103 -73 -3 -22 -11 -44 -19 -48 -7 -5
-46 -9 -85 -9 l-73 0 0 -169 0 -169 -33 -44 c-19 -25 -53 -53 -82 -68 l-49
-24 -341 3 c-328 2 -341 3 -379 24 -22 12 -53 39 -70 60 l-31 39 -3 174 -3
174 -73 0 c-43 0 -77 5 -84 12 -7 7 -12 30 -12 53 0 23 5 46 12 53 7 7 42 12
85 12 66 0 73 2 73 20 0 20 7 20 495 20 488 0 495 0 495 -20z"/>
<path d="M6081 6783 c-433 -2 -618 -6 -628 -14 -11 -9 -13 -160 -13 -850 l0
-839 870 0 870 0 -2 643 c-3 520 -5 641 -16 639 -10 -2 -11 7 -6 33 5 27 3 36
-10 41 -9 3 -16 15 -16 26 0 11 -11 29 -25 40 -14 11 -25 26 -25 35 0 21 -100
122 -121 123 -8 0 -26 11 -39 25 -13 14 -31 25 -41 25 -9 0 -19 7 -23 15 -3 8
-14 15 -25 15 -11 0 -23 5 -26 10 -3 6 -19 10 -34 10 -16 0 -34 7 -41 15 -7 8
-18 14 -24 13 -6 -2 -287 -4 -625 -5z m332 -299 c62 -21 127 -80 160 -146 22
-43 27 -67 27 -124 0 -41 5 -75 12 -82 7 -7 39 -12 75 -12 75 0 128 -19 138
-50 10 -31 -4 -405 -20 -532 -14 -113 -35 -159 -79 -173 -26 -9 -670 -16 -749
-9 -32 4 -64 13 -72 21 -9 9 -15 10 -15 3 0 -6 -5 -8 -10 -5 -6 4 -8 10 -5 14
2 5 -4 16 -15 26 -11 10 -20 13 -20 7 0 -6 6 -12 13 -15 6 -2 9 -8 5 -12 -14
-15 -21 3 -25 62 -2 32 -8 110 -14 173 -14 163 -23 394 -15 425 10 41 60 65
136 65 l65 0 3 67 c8 187 125 313 292 313 36 0 87 -7 113 -16z m-603 -388 c0
-3 -4 -8 -10 -11 -5 -3 -10 -1 -10 4 0 6 5 11 10 11 6 0 10 -2 10 -4z m510
-756 c184 0 353 5 375 10 40 9 55 6 41 -7 -13 -14 -803 -10 -817 4 -9 9 -2 9
27 2 22 -4 190 -9 374 -9z"/>
<path d="M6253 6379 c-24 -7 -31 -13 -26 -26 5 -12 2 -15 -9 -10 -16 6 -68
-40 -68 -59 0 -5 14 7 30 26 16 19 29 31 29 25 0 -14 -46 -65 -58 -65 -12 0
-24 -74 -19 -115 l3 -30 150 -2 c83 -1 162 0 176 3 25 5 26 7 23 69 -3 65 -20
111 -49 135 -13 11 -15 10 -8 -6 6 -17 5 -17 -10 -5 -9 7 -14 18 -10 24 4 7 0
8 -12 4 -9 -4 -23 -3 -29 2 -6 6 -36 12 -66 14 -39 3 -33 4 19 3 67 -1 71 0
45 11 -34 14 -66 15 -111 2z m207 -102 c0 -4 -6 -2 -14 5 -8 7 -12 17 -9 22 5
8 23 -12 23 -27z"/>
<path d="M3551 4220 c-1 -592 1 -681 14 -686 10 -4 13 -14 9 -29 -3 -13 1 -28
10 -38 9 -8 16 -22 16 -30 0 -32 38 -86 108 -154 41 -40 82 -73 92 -73 10 0
20 -4 22 -8 2 -5 35 -22 73 -38 l70 -29 663 -3 662 -3 0 886 0 885 -869 0
-869 0 -1 -680z m1191 158 c154 -150 284 -281 290 -291 27 -52 -36 -122 -89
-98 -13 6 -26 11 -28 11 -3 0 -5 -106 -5 -235 0 -246 -6 -284 -45 -299 -9 -3
-203 -6 -431 -6 l-415 0 -24 25 -25 24 0 246 c0 135 -2 245 -4 245 -3 0 -16
-4 -30 -10 -51 -19 -108 37 -91 89 3 11 133 144 288 295 209 205 287 276 305
276 18 0 96 -70 304 -272z"/>
<path d="M4310 3775 l0 -155 130 0 130 0 0 155 0 155 -130 0 -130 0 0 -155z"/>
<path d="M5440 4014 l0 -885 653 3 c618 4 654 5 697 23 25 11 47 23 48 27 2 5
9 8 16 8 31 0 85 39 168 121 48 48 88 95 88 103 0 8 5 18 10 21 6 3 10 13 10
21 0 9 7 22 15 30 8 9 15 28 15 44 0 16 5 32 10 35 7 4 10 238 10 671 l0 664
-870 0 -870 0 0 -886z m786 604 c77 -25 158 -92 202 -167 25 -43 27 -55 28
-165 l1 -119 202 -198 c226 -223 248 -254 237 -342 -11 -97 -82 -161 -177
-160 -25 0 -59 7 -74 16 -16 8 -122 108 -235 221 l-207 207 -46 -12 c-76 -19
-164 -8 -240 29 -76 38 -127 91 -165 172 -43 90 -35 240 12 240 6 0 58 -45
115 -100 58 -55 110 -100 115 -99 6 0 47 12 91 27 l80 27 22 90 22 90 -106
107 c-104 105 -106 108 -89 127 33 36 119 40 212 9z"/>
</g>
</svg>
